<svg width="619" height="515" viewBox="0 0 619 515" fill="none" xmlns="http://www.w3.org/2000/svg">
<path d="M0 7.00001C0 3.13401 3.13401 0 7 0H612C615.866 0 619 3.13401 619 7V508C619 511.866 615.866 515 612 515H6.99999C3.134 515 0 511.866 0 508V7.00001Z" fill="#4A3AD9"/>
<path d="M304.025 393.757L204.754 292.21H219.299L311.481 386.505C313.561 388.632 315.936 390.168 318.513 391.076C321.077 391.98 323.896 392.269 326.873 391.914C329.853 391.558 332.521 390.615 334.795 389.136C337.068 387.657 339.011 385.602 340.539 383.031L363.743 343.985H286.448V321.004V320.246V292.16H504V321.004H406.474V343.985H375.856L349.503 388.329C347.151 392.285 344.094 395.49 340.459 397.855C336.823 400.218 332.657 401.717 328.094 402.261C323.531 402.805 319.133 402.335 315.051 400.894C310.98 399.46 307.256 397.063 304.025 393.757ZM145.618 284.388V258.407H150.954V193.455L150.955 190.619V190.406V190.132V189.863V189.6L150.957 188.839V188.594V188.353V188.115L150.958 187.426V187.203V186.982L150.96 186.551V186.339V186.131V185.924L150.961 185.719V185.516V185.315L150.963 185.115V184.917V184.721V184.526L150.964 184.138V183.945L151.015 139.913C151.015 139.913 147.986 139.926 145.65 139.926V113.945H196.345V139.926H191.008L190.976 188.908V207.046H191.777C194.089 198.784 197.558 192.623 202.182 188.56C206.807 184.496 212.943 182.464 220.593 182.464C228.597 182.464 234.334 184.428 237.803 188.359C241.271 192.289 243.005 198.651 243.005 207.445V239.421C243.005 243.285 242.427 246.15 241.271 248.015C240.114 249.879 237.446 251.479 233.267 252.81C229.087 254.144 222.015 255.808 212.055 257.807V258.407H247.008V284.388H199.514V258.407H202.983V216.638C202.983 213.974 202.583 212.109 201.783 211.043C200.982 209.977 199.693 209.444 197.913 209.444C194.711 209.444 192.399 211.442 190.976 215.439V258.407H194.445V284.388H145.618ZM251.01 284.388V258.407H256.346V210.443H251.01V184.462H275.024C283.206 184.462 288.808 185.961 291.834 188.959C294.857 191.956 296.369 197.12 296.369 204.447V207.245H297.17C299.481 198.985 302.95 192.789 307.575 188.659C312.201 184.529 318.337 182.464 325.986 182.464C333.991 182.464 339.728 184.396 343.197 188.26C346.665 192.124 348.398 198.452 348.398 207.245H349.2C351.51 198.985 354.981 192.789 359.605 188.659C364.23 184.529 370.366 182.464 378.016 182.464C386.02 182.464 391.757 184.428 395.226 188.359C398.694 192.289 400.428 198.651 400.428 207.445V239.421C400.428 243.285 399.807 246.15 398.561 248.015C397.316 249.879 394.648 251.479 390.556 252.81C386.466 254.144 379.438 255.808 369.477 257.807V258.407H404.431V284.388H356.937V258.407H360.406V216.638C360.406 213.974 360.005 212.109 359.206 211.043C358.404 209.977 357.115 209.444 355.336 209.444C352.134 209.444 349.822 211.442 348.398 215.439V258.407H351.868V284.388H304.906V258.407H308.377V216.638C308.377 213.974 307.976 212.109 307.176 211.043C306.375 209.977 305.086 209.444 303.306 209.444C300.105 209.444 297.793 211.442 296.369 215.439V258.407H299.839V284.388H251.01ZM434.046 286.386C425.687 286.386 419.105 284.154 414.302 279.691C409.501 275.227 407.099 268.266 407.099 258.806C407.099 247.482 410.7 239.488 417.906 234.824C425.109 230.162 435.292 227.829 448.455 227.829C451.301 227.829 454.682 227.964 458.594 228.23V216.438C458.594 212.84 458.416 210.443 458.061 209.244C457.705 208.045 456.903 207.445 455.659 207.445C453.88 207.445 452.769 208.211 452.324 209.743C451.879 211.275 451.656 214.506 451.656 219.436H411.634C411.634 207.046 415.057 197.785 421.907 191.656C428.756 185.528 439.561 182.464 454.324 182.464C465.354 182.464 474.07 183.696 480.473 186.161C486.878 188.626 491.502 192.523 494.347 197.852C497.194 203.182 498.618 210.376 498.618 219.436V258.407H503.954V284.388H479.941C471.756 284.388 466.154 282.889 463.131 279.891C460.107 276.893 458.594 271.73 458.594 264.402V261.405H457.793C456.194 270.598 453.657 277.06 450.189 280.79C446.72 284.521 441.341 286.386 434.046 286.386ZM453.258 258.008C456.815 258.008 458.594 253.743 458.594 245.217V231.627C451.836 233.093 448.455 238.956 448.455 249.214C448.455 252.544 448.856 254.843 449.656 256.108C450.457 257.374 451.656 258.008 453.258 258.008ZM294.178 313.078H299.219V307.804H304.978V313.078H310.02V300.053H304.978V304.556H299.219V300.053H294.178V313.078ZM312.873 313.078H327.099V309.722H317.914V308H325V304.807H317.914V303.246H326.669V300.053H312.873V313.078ZM332.232 313.078H337.29V309.4L343.086 300.053H337.29L334.796 305.418L332.446 300.053H326.526L332.232 309.4V313.078ZM352.361 313.078H357.044V302.905L360.094 313.078H364.041L367.127 302.905V313.078H371.809V300.053H364.435L362.049 307.983L359.843 300.053H352.361V313.078ZM372.706 313.078H378.106L378.573 311.786H384.116L384.546 313.078H390.001L384.744 300.053H378.339L372.706 313.078ZM379.775 308.593L381.426 304L382.987 308.593H379.775ZM396.046 305.687V303.354H398.864C400.335 303.354 401.089 303.498 401.089 304.484C401.089 305.435 400.37 305.687 398.988 305.687H396.046ZM400.855 300.053H390.933V313.078H396.046V309.113H399.06C400.298 309.113 400.783 309.436 400.89 310.405C401.016 311.499 400.837 312.45 401.232 313.078H406.828V312.88C406.219 312.575 406.219 311.499 406.129 309.634C406.057 308.144 405.895 307.427 404.515 306.852C405.86 306.331 406.649 305.094 406.649 303.551C406.649 302.296 406.129 301.308 405.161 300.717C404.335 300.214 402.899 300.053 400.855 300.053ZM408.802 313.078H413.842V309.579L416.049 307.786L419.566 313.078H425.828L419.87 304.753L425.289 300.053H418.472L413.842 304.556V300.053H408.802V313.078ZM426.402 313.078H440.628V309.722H431.443V308H438.53V304.807H431.443V303.246H440.198V300.053H426.402V313.078ZM445.563 313.078H450.623V303.354H455.341V300.053H440.862V303.354H445.563V313.078ZM456.794 313.078H461.852V300.053H456.794V313.078ZM464.67 313.078H469.424V305.453L474.896 313.078H480.547V300.053H475.667V307.552L470.625 300.053H464.67V313.078ZM497.125 311.912L497.663 313.078H499.923V305.687H492.658V308.503H494.757C494.523 309.526 493.375 310.207 491.635 310.207C489.393 310.207 488.083 308.88 488.083 306.565C488.083 304.269 489.463 302.834 491.562 302.834C492.837 302.834 493.716 303.372 494.237 304.395H499.762C499.385 301.56 496.442 299.712 491.419 299.712C485.607 299.712 482.664 302.062 482.664 306.565C482.664 311.069 485.607 313.419 491.419 313.419C494.021 313.419 495.868 313.005 497.125 311.912ZM292.223 336.776H297.623L298.09 335.484H303.633L304.063 336.776H309.518L304.261 323.752H297.856L292.223 336.776ZM299.292 332.291L300.943 327.699L302.504 332.291H299.292ZM323.816 335.61L324.354 336.776H326.614V329.385H319.349V332.201H321.448C321.215 333.224 320.066 333.905 318.326 333.905C316.084 333.905 314.774 332.578 314.774 330.263C314.774 327.967 316.155 326.532 318.254 326.532C319.528 326.532 320.408 327.07 320.928 328.093H326.453C326.076 325.258 323.133 323.41 318.11 323.41C312.298 323.41 309.355 325.761 309.355 330.263C309.355 334.767 312.298 337.117 318.11 337.117C320.712 337.117 322.56 336.704 323.816 335.61ZM329.055 336.776H343.281V333.421H334.095V331.698H341.182V328.506H334.095V326.945H342.851V323.752H329.055V336.776ZM344.897 336.776H349.65V329.152L355.123 336.776H360.774V323.752H355.894V331.251L350.852 323.752H344.897V336.776ZM374.499 329.222H380.258C380.078 325.509 377.1 323.41 371.646 323.41C365.834 323.41 362.891 325.761 362.891 330.263C362.891 334.767 365.834 337.117 371.646 337.117C376.831 337.117 379.773 335.215 380.293 331.645H374.481C374.175 333.063 373.189 333.762 371.646 333.762C369.475 333.762 368.31 332.543 368.31 330.263C368.31 327.985 369.475 326.746 371.646 326.746C373.332 326.746 374.338 327.608 374.499 329.222ZM385.695 336.776H390.753V333.098L396.549 323.752H390.753L388.259 329.116L385.909 323.752H379.989L385.695 333.098V336.776ZM143.131 229.174L124.276 209.885C120.415 205.933 117.856 201.226 116.701 196.181C115.548 191.14 115.804 185.787 117.563 180.542C119.327 175.29 122.354 170.86 126.318 167.532C130.286 164.201 135.168 161.985 140.63 161.163L143.199 160.776L143.188 171.32L142.179 171.472C138.639 172.005 135.507 173.411 133 175.518C130.487 177.627 128.558 180.461 127.423 183.841C126.287 187.226 126.116 190.656 126.848 193.857C127.581 197.058 129.231 200.073 131.732 202.633L143.131 214.295V229.174ZM198.791 152.402L458.08 113.339C463.697 112.495 469.169 113.244 474.046 115.391C478.908 117.533 483.154 121.071 486.333 125.802C489.499 130.51 491.165 135.774 491.313 141.098C491.459 146.43 490.09 151.773 487.196 156.641L475.351 176.572C473.709 176.215 471.993 175.911 470.203 175.658C468.272 175.386 466.262 175.169 464.17 175.005L478.232 151.343C480.121 148.167 481.016 144.743 480.924 141.382C480.831 138.013 479.75 134.644 477.694 131.587C475.656 128.553 472.945 126.288 469.851 124.925C466.77 123.568 463.267 123.101 459.629 123.648L198.784 162.944L198.791 152.402Z" fill="white"/>
</svg>
