<svg width="302" height="250" viewBox="0 0 302 250" fill="none" xmlns="http://www.w3.org/2000/svg">
<path d="M0 7C0 3.13401 3.13401 0 7 0H295C298.866 0 302 3.13401 302 7V243C302 246.866 298.866 250 295 250H7C3.13401 250 0 246.866 0 243V7Z" fill="#4A3AD9"/>
<path d="M98.3 160V150.7H100V109.4C100 107.867 100.167 106.733 100.5 106C100.833 105.267 101.5 104.633 102.5 104.1C103.5 103.567 105.2 102.967 107.6 102.3V102H98.3V92.7H111.7V102H110V121H110.3C111.1 117.067 112.267 114.133 113.8 112.2C115.333 110.267 117.4 109.3 120 109.3C122.6 109.3 124.467 110.267 125.6 112.2C126.8 114.067 127.4 117.167 127.4 121.5V143.2C127.4 144.733 127.233 145.9 126.9 146.7C126.567 147.433 125.9 148.067 124.9 148.6C123.9 149.133 122.2 149.733 119.8 150.4V150.7H128.9V160H116.1V150.7H117.4V124.4C117.4 122.333 117.2 120.933 116.8 120.2C116.4 119.4 115.7 119 114.7 119C112.567 119 111 121.167 110 125.5V150.7H111.3V160H98.3ZM129.708 160V150.7H131.308V119.3H129.708V110H135.508C137.774 110 139.308 110.567 140.108 111.7C140.908 112.833 141.308 114.833 141.308 117.7V120.6H141.608C142.274 116.733 143.308 113.9 144.708 112.1C146.174 110.233 148.141 109.3 150.608 109.3C153.074 109.3 154.874 110.2 156.008 112C157.208 113.8 157.808 116.667 157.808 120.6H158.108C158.774 116.733 159.808 113.9 161.208 112.1C162.674 110.233 164.641 109.3 167.108 109.3C169.708 109.3 171.541 110.267 172.608 112.2C173.741 114.067 174.308 117.167 174.308 121.5V143.2C174.308 144.733 174.141 145.9 173.808 146.7C173.474 147.433 172.808 148.067 171.808 148.6C170.808 149.133 169.108 149.733 166.708 150.4V150.7H175.808V160H163.008V150.7H164.308V124.6C164.308 122.467 164.141 121 163.808 120.2C163.474 119.4 162.874 119 162.008 119C160.074 119 158.674 121.233 157.808 125.7V150.7H159.108V160H146.508V150.7H147.808V124.6C147.808 122.467 147.641 121 147.308 120.2C146.974 119.4 146.374 119 145.508 119C143.574 119 142.174 121.233 141.308 125.7V150.7H142.608V160H129.708ZM184.331 160.7C178.665 160.7 175.831 156.133 175.831 147C175.831 141.6 176.931 137.7 179.131 135.3C181.398 132.833 184.665 131.6 188.931 131.6C190.331 131.6 191.498 131.667 192.431 131.8V125.1C192.431 122.5 192.265 120.767 191.931 119.9C191.665 118.967 191.098 118.5 190.231 118.5C189.231 118.5 188.531 119.033 188.131 120.1C187.731 121.1 187.531 122.933 187.531 125.6H177.531C177.531 120.267 178.598 116.233 180.731 113.5C182.865 110.7 186.065 109.3 190.331 109.3C194.598 109.3 197.665 110.6 199.531 113.2C201.465 115.733 202.431 119.833 202.431 125.5V150.7H204.131V160H198.331C196.065 160 194.498 159.433 193.631 158.3C192.831 157.167 192.431 155.167 192.431 152.3V148.7H192.131C191.531 153.033 190.631 156.133 189.431 158C188.298 159.8 186.598 160.7 184.331 160.7ZM188.831 150.6C189.965 150.6 190.831 149.433 191.431 147.1C192.098 144.767 192.431 141.5 192.431 137.3V133.1C190.365 133.433 188.798 134.467 187.731 136.2C186.731 137.867 186.231 140.433 186.231 143.9C186.231 146.3 186.431 148.033 186.831 149.1C187.231 150.1 187.898 150.6 188.831 150.6Z" fill="white"/>
</svg>
