<svg width="361" height="33" viewBox="0 0 361 33" fill="none" xmlns="http://www.w3.org/2000/svg">
<path d="M5.404 8.032C5.972 8.032 6.476 8.136 6.916 8.344C7.356 8.552 7.696 8.844 7.936 9.22C8.184 9.596 8.308 10.028 8.308 10.516C8.308 11.004 8.184 11.436 7.936 11.812C7.696 12.188 7.356 12.48 6.916 12.688C6.476 12.896 5.972 13 5.404 13H2.152V4.6H7.648V5.416H2.992V8.032H5.404ZM5.404 12.184C6.036 12.184 6.532 12.036 6.892 11.74C7.252 11.444 7.432 11.036 7.432 10.516C7.432 9.996 7.252 9.588 6.892 9.292C6.532 8.996 6.036 8.848 5.404 8.848H2.992V12.184H5.404ZM13.1088 4.6C13.7088 4.6 14.2368 4.716 14.6928 4.948C15.1488 5.172 15.5008 5.488 15.7487 5.896C15.9968 6.296 16.1208 6.76 16.1208 7.288C16.1208 7.816 15.9968 8.284 15.7487 8.692C15.5008 9.1 15.1488 9.42 14.6928 9.652C14.2368 9.876 13.7088 9.988 13.1088 9.988H10.9608V13H10.1208V4.6H13.1088ZM13.1088 9.172C13.7888 9.172 14.3168 9.004 14.6928 8.668C15.0688 8.332 15.2568 7.872 15.2568 7.288C15.2568 6.704 15.0688 6.248 14.6928 5.92C14.3168 5.584 13.7888 5.416 13.1088 5.416H10.9608V9.172H13.1088ZM18.5662 9.148V12.184H23.3662V13H17.7262V4.6H23.3062V5.416H18.5662V8.332H22.6462V9.148H18.5662ZM30.7373 8.332V4.6H31.5773V13H30.7373V9.148H25.9373V13H25.0973V4.6H25.9373V8.332H30.7373ZM40.0064 12.184H41.1224V14.68H40.3064V13H33.7544V14.68H32.9504V12.184H33.7304C33.9864 11.8 34.1704 11.388 34.2824 10.948C34.3944 10.5 34.4744 9.944 34.5224 9.28L34.8224 4.6H40.0064V12.184ZM39.1664 12.184V5.416H35.6024L35.3504 9.28C35.2864 10.504 35.0464 11.472 34.6304 12.184H39.1664ZM43.8157 13H42.6637V4.6H43.5037V11.992H43.5637L48.2797 4.6H49.4437V13H48.6037V5.608H48.5437L43.8157 13ZM57.3858 8.332V4.6H58.2258V13H57.3858V9.148H52.5858V13H51.7458V4.6H52.5858V8.332H57.3858ZM61.3748 13H60.5348V4.6H65.6708V5.416H61.3748V13Z" fill="white"/>
<path d="M17.792 27.332V23.6H18.632V32H17.792V28.148H12.992V32H12.152V23.6H12.992V27.332H17.792ZM21.7811 28.148V31.184H26.5811V32H20.9411V23.6H26.5211V24.416H21.7811V27.332H25.8611V28.148H21.7811ZM31.2642 32H30.4242V28.916L27.3402 23.6H28.2642L30.8322 28.04H30.8922L33.4482 23.6H34.3482L31.2642 28.916V32ZM39.3592 32H38.5192V23.6H39.7312L42.8752 29.024H42.9352L46.0912 23.6H47.2792V32H46.4392V24.668H46.3792L43.3072 29.924H42.4792L39.4192 24.668H39.3592V32ZM56.29 32H55.426L54.514 29.612H50.518L49.606 32H48.754L51.994 23.6H53.05L56.29 32ZM52.486 24.464L50.818 28.832H54.214L52.546 24.464H52.486ZM63.1491 32L60.8931 28.688H58.6131V32H57.7731V23.6H61.0131C61.6051 23.6 62.1211 23.708 62.5611 23.924C63.0091 24.132 63.3531 24.428 63.5931 24.812C63.8331 25.196 63.9531 25.64 63.9531 26.144C63.9531 26.776 63.7611 27.316 63.3771 27.764C62.9931 28.204 62.4691 28.488 61.8051 28.616L64.1331 32H63.1491ZM58.6131 24.416V27.872H61.0131C61.6771 27.872 62.1891 27.72 62.5491 27.416C62.9091 27.112 63.0891 26.688 63.0891 26.144C63.0891 25.6 62.9091 25.176 62.5491 24.872C62.1891 24.568 61.6771 24.416 61.0131 24.416H58.6131ZM72.4942 32H71.4502L68.4622 28.112H66.7342V32H65.8942V23.6H66.7342V27.308H68.4262L71.2462 23.6H72.2422L69.1222 27.656L72.4942 32ZM74.6326 28.148V31.184H79.4326V32H73.7926V23.6H79.3726V24.416H74.6326V27.332H78.7126V28.148H74.6326ZM84.0437 32H83.2037V24.416H80.3477V23.6H86.8997V24.416H84.0437V32ZM89.1865 32H88.3825V23.6H89.1865V32ZM92.3042 32H91.4762V23.6H92.6162L97.3682 30.968H97.4282V23.6H98.2562V32H97.1042L92.3642 24.632H92.3042V32ZM104.062 27.728H108.454V27.968C108.454 28.752 108.278 29.46 107.926 30.092C107.574 30.724 107.082 31.224 106.45 31.592C105.826 31.952 105.118 32.132 104.326 32.132C103.526 32.132 102.798 31.944 102.142 31.568C101.494 31.192 100.982 30.676 100.606 30.02C100.23 29.356 100.042 28.616 100.042 27.8C100.042 26.984 100.23 26.248 100.606 25.592C100.982 24.928 101.49 24.408 102.13 24.032C102.778 23.656 103.494 23.468 104.278 23.468C104.902 23.468 105.482 23.588 106.018 23.828C106.562 24.068 107.026 24.404 107.41 24.836C107.794 25.26 108.07 25.756 108.238 26.324H107.35C107.11 25.7 106.718 25.204 106.174 24.836C105.63 24.468 105.002 24.284 104.29 24.284C103.658 24.284 103.082 24.436 102.562 24.74C102.05 25.036 101.646 25.452 101.35 25.988C101.054 26.524 100.906 27.128 100.906 27.8C100.906 28.48 101.05 29.088 101.338 29.624C101.634 30.152 102.042 30.568 102.562 30.872C103.082 31.168 103.67 31.316 104.326 31.316C104.91 31.316 105.43 31.196 105.886 30.956C106.35 30.716 106.722 30.384 107.002 29.96C107.29 29.536 107.474 29.052 107.554 28.508H104.062V27.728ZM119.29 32H118.426L117.514 29.612H113.518L112.606 32H111.754L114.994 23.6H116.05L119.29 32ZM115.486 24.464L113.818 28.832H117.214L115.546 24.464H115.486ZM123.797 27.728H128.189V27.968C128.189 28.752 128.013 29.46 127.661 30.092C127.309 30.724 126.817 31.224 126.185 31.592C125.561 31.952 124.853 32.132 124.061 32.132C123.261 32.132 122.533 31.944 121.877 31.568C121.229 31.192 120.717 30.676 120.341 30.02C119.965 29.356 119.777 28.616 119.777 27.8C119.777 26.984 119.965 26.248 120.341 25.592C120.717 24.928 121.225 24.408 121.865 24.032C122.513 23.656 123.229 23.468 124.013 23.468C124.637 23.468 125.217 23.588 125.753 23.828C126.297 24.068 126.761 24.404 127.145 24.836C127.529 25.26 127.805 25.756 127.973 26.324H127.085C126.845 25.7 126.453 25.204 125.909 24.836C125.365 24.468 124.737 24.284 124.025 24.284C123.393 24.284 122.817 24.436 122.297 24.74C121.785 25.036 121.381 25.452 121.085 25.988C120.789 26.524 120.641 27.128 120.641 27.8C120.641 28.48 120.785 29.088 121.073 29.624C121.369 30.152 121.777 30.568 122.297 30.872C122.817 31.168 123.405 31.316 124.061 31.316C124.645 31.316 125.165 31.196 125.621 30.956C126.085 30.716 126.457 30.384 126.737 29.96C127.025 29.536 127.209 29.052 127.289 28.508H123.797V27.728ZM130.801 28.148V31.184H135.601V32H129.961V23.6H135.541V24.416H130.801V27.332H134.881V28.148H130.801ZM138.16 32H137.332V23.6H138.472L143.224 30.968H143.284V23.6H144.112V32H142.96L138.22 24.632H138.16V32ZM150.134 32.132C149.35 32.132 148.634 31.944 147.986 31.568C147.346 31.192 146.838 30.676 146.462 30.02C146.086 29.356 145.898 28.616 145.898 27.8C145.898 26.984 146.086 26.248 146.462 25.592C146.838 24.928 147.346 24.408 147.986 24.032C148.634 23.656 149.35 23.468 150.134 23.468C150.806 23.468 151.414 23.604 151.958 23.876C152.502 24.148 152.95 24.508 153.302 24.956C153.662 25.396 153.914 25.872 154.058 26.384H153.17C152.954 25.792 152.582 25.296 152.054 24.896C151.526 24.488 150.89 24.284 150.146 24.284C149.514 24.284 148.938 24.436 148.418 24.74C147.906 25.036 147.502 25.452 147.206 25.988C146.91 26.524 146.762 27.128 146.762 27.8C146.762 28.472 146.91 29.076 147.206 29.612C147.502 30.148 147.906 30.568 148.418 30.872C148.938 31.168 149.514 31.316 150.146 31.316C150.914 31.316 151.562 31.108 152.09 30.692C152.626 30.268 152.998 29.748 153.206 29.132H154.106C153.946 29.676 153.682 30.176 153.314 30.632C152.954 31.088 152.502 31.452 151.958 31.724C151.414 31.996 150.806 32.132 150.134 32.132ZM158.307 32H157.467V28.916L154.383 23.6H155.307L157.875 28.04H157.935L160.491 23.6H161.391L158.307 28.916V32Z" fill="white"/>
<path d="M205.892 18.608C206.324 18.744 206.676 18.996 206.948 19.364C207.228 19.732 207.368 20.164 207.368 20.66C207.368 21.116 207.252 21.524 207.02 21.884C206.788 22.236 206.46 22.512 206.036 22.712C205.62 22.904 205.136 23 204.584 23H201.152V14.6H204.584C205.08 14.6 205.516 14.692 205.892 14.876C206.268 15.052 206.556 15.3 206.756 15.62C206.964 15.94 207.068 16.308 207.068 16.724C207.068 17.148 206.96 17.52 206.744 17.84C206.536 18.152 206.252 18.388 205.892 18.548V18.608ZM201.992 15.38V18.26H204.56C205.072 18.26 205.472 18.128 205.76 17.864C206.048 17.6 206.192 17.248 206.192 16.808C206.192 16.376 206.044 16.032 205.748 15.776C205.46 15.512 205.064 15.38 204.56 15.38H201.992ZM204.584 22.22C205.168 22.22 205.632 22.076 205.976 21.788C206.32 21.492 206.492 21.1 206.492 20.612C206.492 20.124 206.324 19.736 205.988 19.448C205.66 19.16 205.216 19.016 204.656 19.016H201.992V22.22H204.584ZM215.724 23H214.86L213.948 20.612H209.952L209.04 23H208.188L211.428 14.6H212.484L215.724 23ZM211.92 15.464L210.252 19.832H213.648L211.98 15.464H211.92ZM227.047 23H217.207V14.6H218.047V22.184H221.707V14.6H222.547V22.184H226.207V14.6H227.047V23ZM237.614 14.6H238.514L235.394 21.608C235.242 21.96 235.09 22.236 234.938 22.436C234.786 22.628 234.594 22.772 234.362 22.868C234.13 22.956 233.826 23 233.45 23H232.766V22.184H233.45C233.762 22.184 233.998 22.124 234.158 22.004C234.318 21.884 234.47 21.66 234.614 21.332L234.806 20.852L231.626 14.6H232.538L235.226 19.94H235.286L237.614 14.6ZM242.327 23.132C241.343 23.132 240.555 22.912 239.963 22.472C239.379 22.024 239.055 21.404 238.991 20.612H239.879C239.935 21.172 240.171 21.596 240.587 21.884C241.011 22.172 241.591 22.316 242.327 22.316C243.015 22.316 243.551 22.176 243.935 21.896C244.327 21.616 244.523 21.204 244.523 20.66C244.523 20.18 244.339 19.804 243.971 19.532C243.603 19.252 243.103 19.112 242.471 19.112H241.379V18.296H242.471C243.015 18.296 243.451 18.152 243.779 17.864C244.115 17.576 244.283 17.204 244.283 16.748C244.283 16.284 244.111 15.924 243.767 15.668C243.423 15.412 242.927 15.284 242.279 15.284C241.639 15.284 241.131 15.412 240.755 15.668C240.379 15.924 240.163 16.304 240.107 16.808H239.219C239.275 16.072 239.579 15.5 240.131 15.092C240.691 14.676 241.407 14.468 242.279 14.468C242.863 14.468 243.371 14.564 243.803 14.756C244.235 14.94 244.567 15.204 244.799 15.548C245.031 15.884 245.147 16.272 245.147 16.712C245.147 17.16 245.027 17.548 244.787 17.876C244.555 18.204 244.215 18.456 243.767 18.632V18.692C244.279 18.844 244.675 19.096 244.955 19.448C245.243 19.792 245.387 20.216 245.387 20.72C245.387 21.464 245.107 22.052 244.547 22.484C243.987 22.916 243.247 23.132 242.327 23.132ZM252.894 18.332V14.6H253.734V23H252.894V19.148H248.094V23H247.254V14.6H248.094V18.332H252.894ZM262.763 23H261.899L260.987 20.612H256.991L256.079 23H255.227L258.467 14.6H259.523L262.763 23ZM258.959 15.464L257.291 19.832H260.687L259.019 15.464H258.959ZM268.986 18.608C269.418 18.744 269.77 18.996 270.042 19.364C270.322 19.732 270.462 20.164 270.462 20.66C270.462 21.116 270.346 21.524 270.114 21.884C269.882 22.236 269.554 22.512 269.13 22.712C268.714 22.904 268.23 23 267.678 23H264.246V14.6H267.678C268.174 14.6 268.61 14.692 268.986 14.876C269.362 15.052 269.65 15.3 269.85 15.62C270.058 15.94 270.162 16.308 270.162 16.724C270.162 17.148 270.054 17.52 269.838 17.84C269.63 18.152 269.346 18.388 268.986 18.548V18.608ZM265.086 15.38V18.26H267.654C268.166 18.26 268.566 18.128 268.854 17.864C269.142 17.6 269.286 17.248 269.286 16.808C269.286 16.376 269.138 16.032 268.842 15.776C268.554 15.512 268.158 15.38 267.654 15.38H265.086ZM267.678 22.22C268.262 22.22 268.726 22.076 269.07 21.788C269.414 21.492 269.586 21.1 269.586 20.612C269.586 20.124 269.418 19.736 269.082 19.448C268.754 19.16 268.31 19.016 267.75 19.016H265.086V22.22H267.678ZM278.817 23H277.953L277.041 20.612H273.045L272.133 23H271.281L274.521 14.6H275.577L278.817 23ZM275.013 15.464L273.345 19.832H276.741L275.073 15.464H275.013ZM281.14 19.148V22.184H285.94V23H280.3V14.6H285.88V15.416H281.14V18.332H285.22V19.148H281.14ZM288.512 23H287.672V14.6H288.884L292.028 20.024H292.088L295.244 14.6H296.432V23H295.592V15.668H295.532L292.46 20.924H291.632L288.572 15.668H288.512V23ZM301.614 17.672C302.222 17.672 302.754 17.784 303.21 18.008C303.666 18.232 304.018 18.548 304.266 18.956C304.514 19.356 304.638 19.816 304.638 20.336C304.638 20.856 304.514 21.32 304.266 21.728C304.018 22.128 303.666 22.44 303.21 22.664C302.754 22.888 302.222 23 301.614 23H298.722V14.6H299.562V17.672H301.614ZM306.054 23V14.6H306.894V23H306.054ZM301.614 22.184C302.302 22.184 302.83 22.02 303.198 21.692C303.574 21.364 303.762 20.912 303.762 20.336C303.762 19.76 303.574 19.308 303.198 18.98C302.83 18.652 302.302 18.488 301.614 18.488H299.562V22.184H301.614ZM310.351 23H309.199V14.6H310.039V21.992H310.099L314.815 14.6H315.979V23H315.139V15.608H315.079L310.351 23ZM312.595 13.904C312.059 13.904 311.639 13.748 311.335 13.436C311.039 13.116 310.891 12.716 310.891 12.236H311.599C311.599 12.564 311.683 12.828 311.851 13.028C312.027 13.22 312.275 13.316 312.595 13.316C312.915 13.316 313.159 13.22 313.327 13.028C313.503 12.828 313.591 12.564 313.591 12.236H314.299C314.299 12.716 314.147 13.116 313.843 13.436C313.547 13.748 313.131 13.904 312.595 13.904ZM324.592 18.032C325.16 18.032 325.664 18.136 326.104 18.344C326.544 18.552 326.884 18.844 327.124 19.22C327.372 19.596 327.496 20.028 327.496 20.516C327.496 21.004 327.372 21.436 327.124 21.812C326.884 22.188 326.544 22.48 326.104 22.688C325.664 22.896 325.16 23 324.592 23H321.34V14.6H326.836V15.416H322.18V18.032H324.592ZM324.592 22.184C325.224 22.184 325.72 22.036 326.08 21.74C326.44 21.444 326.62 21.036 326.62 20.516C326.62 19.996 326.44 19.588 326.08 19.292C325.72 18.996 325.224 18.848 324.592 18.848H322.18V22.184H324.592ZM332.296 14.6C332.896 14.6 333.424 14.716 333.88 14.948C334.336 15.172 334.688 15.488 334.936 15.896C335.184 16.296 335.308 16.76 335.308 17.288C335.308 17.816 335.184 18.284 334.936 18.692C334.688 19.1 334.336 19.42 333.88 19.652C333.424 19.876 332.896 19.988 332.296 19.988H330.148V23H329.308V14.6H332.296ZM332.296 19.172C332.976 19.172 333.504 19.004 333.88 18.668C334.256 18.332 334.444 17.872 334.444 17.288C334.444 16.704 334.256 16.248 333.88 15.92C333.504 15.584 332.976 15.416 332.296 15.416H330.148V19.172H332.296ZM337.754 19.148V22.184H342.554V23H336.914V14.6H342.494V15.416H337.754V18.332H341.834V19.148H337.754ZM349.925 18.332V14.6H350.765V23H349.925V19.148H345.125V23H344.285V14.6H345.125V18.332H349.925ZM359.194 22.184H360.31V24.68H359.494V23H352.942V24.68H352.138V22.184H352.918C353.174 21.8 353.358 21.388 353.47 20.948C353.582 20.5 353.662 19.944 353.71 19.28L354.01 14.6H359.194V22.184ZM358.354 22.184V15.416H354.79L354.538 19.28C354.474 20.504 354.234 21.472 353.818 22.184H358.354Z" fill="white"/>
<path d="M188.144 17.888H183.056V17.168H188.144V17.888ZM188.144 20.192H183.056V19.472H188.144V20.192Z" fill="white"/>
<path d="M96.992 13H96.152V4.6H97.364L100.508 10.024H100.568L103.724 4.6H104.912V13H104.072V5.668H104.012L100.94 10.924H100.112L97.052 5.668H96.992V13ZM113.923 13H113.059L112.147 10.612H108.151L107.239 13H106.387L109.627 4.6H110.683L113.923 13ZM110.119 5.464L108.451 9.832H111.847L110.179 5.464H110.119ZM118.394 4.6C118.994 4.6 119.522 4.716 119.978 4.948C120.434 5.172 120.786 5.488 121.034 5.896C121.282 6.296 121.406 6.76 121.406 7.288C121.406 7.816 121.282 8.284 121.034 8.692C120.786 9.1 120.434 9.42 119.978 9.652C119.522 9.876 118.994 9.988 118.394 9.988H116.246V13H115.406V4.6H118.394ZM118.394 9.172C119.074 9.172 119.602 9.004 119.978 8.668C120.354 8.332 120.542 7.872 120.542 7.288C120.542 6.704 120.354 6.248 119.978 5.92C119.602 5.584 119.074 5.416 118.394 5.416H116.246V9.172H118.394ZM129.611 13H128.567L125.579 9.112H123.851V13H123.011V4.6H123.851V8.308H125.543L128.363 4.6H129.359L126.239 8.656L129.611 13ZM131.75 9.148V12.184H136.55V13H130.91V4.6H136.49V5.416H131.75V8.332H135.83V9.148H131.75ZM141.161 13H140.321V5.416H137.465V4.6H144.017V5.416H141.161V13ZM146.652 13H145.5V4.6H146.34V11.992H146.4L151.116 4.6H152.28V13H151.44V5.608H151.38L146.652 13ZM160.222 8.332V4.6H161.062V13H160.222V9.148H155.422V13H154.582V4.6H155.422V8.332H160.222ZM164.211 13H163.371V4.6H168.507V5.416H164.211V13Z" fill="white"/>
<path d="M76.672 11H76.216L77.626 8.858L76.258 6.8H76.72L77.908 8.576H77.938L79.12 6.8H79.576L78.214 8.858L79.624 11H79.156L77.932 9.134H77.902L76.672 11Z" fill="white"/>
<path d="M68.318 5V4.472L70.052 3.134C70.332 2.914 70.528 2.72 70.64 2.552C70.756 2.384 70.814 2.198 70.814 1.994C70.814 1.734 70.73 1.528 70.562 1.376C70.394 1.22 70.168 1.142 69.884 1.142C69.564 1.142 69.314 1.228 69.134 1.4C68.958 1.572 68.858 1.794 68.834 2.066H68.402C68.41 1.826 68.468 1.606 68.576 1.406C68.684 1.206 68.848 1.044 69.068 0.92C69.288 0.796 69.56 0.734 69.884 0.734C70.16 0.734 70.4 0.788 70.604 0.896C70.812 1 70.97 1.146 71.078 1.334C71.19 1.522 71.246 1.736 71.246 1.976C71.246 2.248 71.174 2.494 71.03 2.714C70.89 2.934 70.644 3.178 70.292 3.446L68.864 4.562V4.592H71.348V5H68.318Z" fill="white"/>
<path d="M87.5 5C89.6479 8.31946 90.8521 10.1805 93 13.5V2H171.5" stroke="white" stroke-width="0.5" stroke-linecap="square"/>
<path d="M1 18.5H171.5" stroke="white" stroke-width="0.5" stroke-linecap="square"/>
</svg>
