<svg width="40" height="41" viewBox="0 0 40 41" fill="none" xmlns="http://www.w3.org/2000/svg">
<path d="M20 40.4968C31.0457 40.4968 40 31.6127 40 20.6536C40 9.69443 31.0457 0.810303 20 0.810303C8.95431 0.810303 0 9.69443 0 20.6536C0 31.6127 8.95431 40.4968 20 40.4968Z" fill="#FF0302"/>
<path d="M31.7609 15.7651C31.7609 15.7651 31.5265 14.0793 30.8047 13.339C29.8906 12.3647 28.8687 12.36 28.4 12.3027C25.0437 12.0543 20.0047 12.0543 20.0047 12.0543H19.9953C19.9953 12.0543 14.9563 12.0543 11.6 12.3027C11.1313 12.36 10.1094 12.3647 9.19533 13.339C8.47347 14.0793 8.24373 15.7651 8.24373 15.7651C8.24373 15.7651 8 17.747 8 19.7242V21.5772C8 23.5543 8.23907 25.5363 8.23907 25.5363C8.23907 25.5363 8.47347 27.2221 9.1906 27.9624C10.1047 28.9366 11.3047 28.9032 11.8391 29.0083C13.7609 29.1945 20 29.2518 20 29.2518C20 29.2518 25.0437 29.2423 28.4 28.9987C28.8687 28.9414 29.8906 28.9366 30.8047 27.9624C31.5265 27.2221 31.7609 25.5363 31.7609 25.5363C31.7609 25.5363 32 23.5591 32 21.5772V19.7242C32 17.747 31.7609 15.7651 31.7609 15.7651ZM17.5203 23.8266V16.9543L24.0031 20.4024L17.5203 23.8266Z" fill="white"/>
</svg>
